<?xml version="1.0" encoding="UTF-8"?>
<svg version="1.1" xmlns="http://www.w3.org/2000/svg" width="618" height="165">
<path d="M0 0 C1.20946289 0.00141495 2.41892578 0.0028299 3.66503906 0.00428772 C7.50588515 0.00985916 11.3466717 0.02240641 15.1875 0.03515625 C17.8007804 0.04017494 20.41406173 0.0447372 23.02734375 0.04882812 C29.41408261 0.05981923 35.80078705 0.07652882 42.1875 0.09765625 C40.77231442 3.09835705 39.35507567 6.09808392 37.9375 9.09765625 C37.54175781 9.93683594 37.14601562 10.77601562 36.73828125 11.640625 C34.28576712 16.82708931 31.77217342 21.97573462 29.1875 27.09765625 C26.8775 27.09765625 24.5675 27.09765625 22.1875 27.09765625 C22.5175 22.80765625 22.8475 18.51765625 23.1875 14.09765625 C16.66119815 10.52372905 11.18933215 9.96556349 3.8125 10.03515625 C2.56726563 10.04417969 1.32203125 10.05320312 0.0390625 10.0625 C-0.90195313 10.07410156 -1.84296875 10.08570313 -2.8125 10.09765625 C-5.48243758 16.41451331 -8.15163178 22.73168411 -10.8203125 29.04907227 C-11.72801933 31.19758192 -12.63589553 33.34602003 -13.54394531 35.49438477 C-14.85005648 38.58460949 -16.15555588 41.67509204 -17.4609375 44.765625 C-17.86621674 45.72413864 -18.27149597 46.68265228 -18.6890564 47.67021179 C-19.25942123 49.02104607 -19.25942123 49.02104607 -19.84130859 50.39916992 C-20.3409462 51.58164558 -20.3409462 51.58164558 -20.85067749 52.78800964 C-21.86134484 55.21494849 -22.83612524 57.65671934 -23.8125 60.09765625 C-13.5825 60.09765625 -3.3525 60.09765625 7.1875 60.09765625 C5.3307125 63.81123124 4.23142008 65.2056578 1.1875 67.78515625 C0.48625 68.38714844 -0.215 68.98914063 -0.9375 69.609375 C-3.29207605 71.47831974 -4.20424246 72.13817009 -7.24267578 71.93579102 C-8.2376709 71.80487061 -9.23266602 71.6739502 -10.2578125 71.5390625 C-11.33417969 71.40048828 -12.41054687 71.26191406 -13.51953125 71.11914062 C-14.64746094 70.96767578 -15.77539062 70.81621094 -16.9375 70.66015625 C-18.64099609 70.43875977 -18.64099609 70.43875977 -20.37890625 70.21289062 C-23.19086939 69.84662652 -26.00195849 69.47464928 -28.8125 69.09765625 C-28.93093262 69.8153418 -29.04936523 70.53302734 -29.17138672 71.27246094 C-30.30675759 76.27570225 -32.73469555 80.73699907 -34.9375 85.34765625 C-35.39898437 86.34667969 -35.86046875 87.34570312 -36.3359375 88.375 C-39.47388093 94.96985364 -43.09550884 100.53154902 -47.8125 106.09765625 C-48.52277344 106.96777344 -49.23304687 107.83789062 -49.96484375 108.734375 C-54.16581613 113.56043736 -58.51462995 117.50468587 -63.8125 121.09765625 C-56.35375953 122.51780044 -48.81220836 122.68985772 -41.24267578 122.99804688 C-39.70953288 123.06088818 -38.17659389 123.12915802 -36.64404297 123.20507812 C-24.29928624 123.78909268 -15.58403735 121.57089511 -5.58984375 114.26953125 C-3.8125 113.09765625 -3.8125 113.09765625 -1.8125 113.09765625 C-3.3886321 121.64514186 -8.03127461 125.994952 -14.8125 131.09765625 C-22.26088664 136.20138238 -28.65837135 139.39211276 -37.859375 139.28125 C-38.54408875 139.27387314 -39.22880249 139.26649628 -39.93426514 139.25889587 C-48.39701699 139.13244488 -56.85254852 138.72175616 -65.3046875 138.2980957 C-68.07271402 138.15964537 -70.84099352 138.02762595 -73.609375 137.89648438 C-82.69286032 137.45803223 -91.75754932 136.96419777 -100.8125 136.09765625 C-99.43404045 134.44350479 -98.04774529 132.79543046 -96.62890625 131.17578125 C-95.42093151 129.79375423 -94.24062779 128.38703046 -93.08984375 126.95703125 C-88.21311387 121.36587598 -84.00386899 120.06074942 -76.80078125 118.71484375 C-71.2128895 117.56074323 -68.19548225 114.89528301 -64.9375 110.41015625 C-57.22293311 98.01528657 -52.05239769 84.06484682 -46.46386719 70.63208008 C-41.04600049 57.61153241 -35.52778094 44.63437318 -30 31.66015625 C-29.08821017 29.51937103 -28.17642619 27.37858333 -27.26464844 25.23779297 C-25.11476319 20.19072641 -22.96401847 15.14402678 -20.8125 10.09765625 C-22.06877197 10.23937256 -23.32504395 10.38108887 -24.61938477 10.52709961 C-25.67936424 10.64667274 -25.67936424 10.64667274 -26.76075745 10.7686615 C-35.54453786 12.17713141 -44.08693935 18.53528289 -49.8125 25.09765625 C-53.6159185 30.56129712 -56.51175251 35.86163248 -58.25 42.28515625 C-60.62268321 48.90934421 -67.34605009 51.46946223 -73.2578125 54.48046875 C-76.8125 56.09765625 -76.8125 56.09765625 -78.8125 56.09765625 C-75.14561701 38.94338753 -64.82900986 23.46563839 -50.75 13.16015625 C-49.12303405 12.10951366 -47.47742929 11.08703915 -45.8125 10.09765625 C-44.66394531 9.40929687 -44.66394531 9.40929687 -43.4921875 8.70703125 C-30.00354396 1.31721334 -15.08326605 -0.06700914 0 0 Z " fill="#FEBF62" transform="translate(100.8125,16.90234375)"/>
<path d="M0 0 C2.55637329 4.47365326 2.13580932 9.80283117 1.01806641 14.76416016 C0.28757294 16.97053773 -0.54863998 19.10243245 -1.4375 21.25 C-1.77160889 22.09393311 -2.10571777 22.93786621 -2.44995117 23.80737305 C-7.29418567 35.87328595 -12.46801914 47.81462148 -17.59545898 59.76220703 C-17.96091827 60.61478592 -18.32637756 61.46736481 -18.70291138 62.34577942 C-19.39116834 63.95008118 -20.08097608 65.55371896 -20.77267456 67.15653992 C-25.27151379 76.55483218 -25.27151379 76.55483218 -26.5 86.625 C-21.25909644 85.30495233 -17.99509923 82.80701726 -14.1875 79.125 C-13.33285156 78.31325317 -13.33285156 78.31325317 -12.4609375 77.48510742 C-2.33129379 67.76276456 6.20527154 56.91973261 14.5 45.625 C15.21341553 44.69679443 15.92683105 43.76858887 16.66186523 42.81225586 C23.12783735 34.06095023 26.89513322 25.00706712 30.5625 14.8125 C31.14610899 13.2331031 31.73138739 11.65432203 32.31835938 10.07617188 C33.73468959 6.2666631 35.11618657 2.44706274 36.5 -1.375 C42.44 -1.375 48.38 -1.375 54.5 -1.375 C53.69803441 2.63482793 52.90919524 5.23711778 51.2265625 8.83984375 C50.7404248 9.8963916 50.25428711 10.95293945 49.75341797 12.04150391 C49.21604004 13.20343262 48.67866211 14.36536133 48.125 15.5625 C42.37399248 28.15572324 36.95617162 40.88175641 31.65301514 53.66946411 C30.8065569 55.70977247 29.95767047 57.74907529 29.10626221 59.787323 C27.89438923 62.69123551 26.69194464 65.59887653 25.4921875 68.5078125 C25.1332843 69.36529587 24.7743811 70.22277924 24.40460205 71.10624695 C21.92524378 77.16465984 20.09662518 83.27882813 18.5 89.625 C23.62543618 89.14088834 26.64206579 87.53119737 30.8125 84.5625 C31.37283936 84.16490479 31.93317871 83.76730957 32.51049805 83.35766602 C37.47035515 79.77865808 42.06217655 75.83347857 46.5 71.625 C46.83 72.285 47.16 72.945 47.5 73.625 C42.02590686 86.72814602 29.17821724 95.5201609 16.8125 101.5625 C12.55879543 102.9268958 9.95895739 103.20034934 5.5 102.625 C2.5 100.5625 2.5 100.5625 0.5 97.625 C-0.03942788 91.84233315 1.2888098 87.29816978 3.1875 81.9375 C3.45643066 81.15455566 3.72536133 80.37161133 4.00244141 79.56494141 C6.2413026 73.13826333 8.74236168 66.84798913 11.5 60.625 C11.16379639 61.07713867 10.82759277 61.52927734 10.48120117 61.99511719 C-15.65597414 97.01032471 -15.65597414 97.01032471 -32.5 102.625 C-40.37621359 103.05461165 -40.37621359 103.05461165 -43.5 100.625 C-46.73363852 94.10188527 -45.47839832 87.01756624 -43.21484375 80.29296875 C-42.63840859 78.79322605 -42.04483469 77.29999798 -41.4375 75.8125 C-40.93814941 74.54237061 -40.93814941 74.54237061 -40.42871094 73.24658203 C-35.85783082 61.76828849 -30.98297794 50.40398531 -26.13647461 39.03979492 C-19.54225948 25.72990856 -19.54225948 25.72990856 -16.5 11.625 C-21.82080073 12.06166146 -25.21175274 14.11581854 -29.375 17.25 C-29.9848877 17.69714355 -30.59477539 18.14428711 -31.22314453 18.60498047 C-35.85859843 22.0418859 -40.28910955 25.67565554 -44.5 29.625 C-44.83 28.965 -45.16 28.305 -45.5 27.625 C-38.06673985 15.29453317 -16.80812835 -9.24447059 0 0 Z " fill="#FEBE62" transform="translate(231.5,52.375)"/>
<path d="M0 0 C2.5625 1.4375 2.5625 1.4375 4 4 C6.18227819 18.79099664 -4.236076 35.9299976 -10 49.125 C-19.80048634 67.95674214 -19.80048634 67.95674214 -24 88 C-18.87992531 86.68559277 -15.62223053 84.34321105 -11.875 80.75 C-11.03195312 79.95372192 -11.03195312 79.95372192 -10.171875 79.14135742 C-1.30837238 70.61197507 6.3034696 61.0297496 13.8125 51.3125 C14.32748047 50.64839111 14.84246094 49.98428223 15.37304688 49.30004883 C16.95253927 47.2245573 18.48479915 45.12287539 20 43 C20.5664624 42.21439697 21.1329248 41.42879395 21.71655273 40.61938477 C27.11047699 32.69871129 30.23190369 24.26716577 33.4375 15.3125 C33.98252875 13.82052638 34.52874566 12.32898625 35.07617188 10.83789062 C36.40007919 7.23069384 37.69928081 3.61595664 39 0 C44.94 0 50.88 0 57 0 C56.18864526 4.05677371 55.35669631 6.73174239 53.65625 10.390625 C53.15996094 11.47279297 52.66367187 12.55496094 52.15234375 13.66992188 C51.60707031 14.85134766 51.06179688 16.03277344 50.5 17.25 C44.72995509 29.88922518 39.30966432 42.66126641 34 55.5 C33.45653931 56.81127869 33.45653931 56.81127869 32.90209961 58.14904785 C24.96420865 74.17862307 24.96420865 74.17862307 21 91 C26.12543618 90.51588834 29.14206579 88.90619737 33.3125 85.9375 C33.87283936 85.53990479 34.43317871 85.14230957 35.01049805 84.73266602 C39.97035515 81.15365808 44.56217655 77.20847857 49 73 C49.33 73.66 49.66 74.32 50 75 C46.85193274 82.20499076 42.17292191 87.30645076 36 92 C35.12859375 92.68191406 34.2571875 93.36382812 33.359375 94.06640625 C26.80843547 99.03450704 20.19288272 103.94703752 11.75 104.5625 C8 104 8 104 5 101.9375 C3.07804579 99.11462976 2.31022147 97.59270158 2.58203125 94.19140625 C4.53395527 83.95748687 8.7511146 74.44668853 13 65 C12.67 64.67 12.34 64.34 12 64 C11.55011719 64.64324219 11.10023438 65.28648438 10.63671875 65.94921875 C-13.48768803 99.83941746 -13.48768803 99.83941746 -30 104 C-34.1304645 104.34420537 -37.62414037 104.6256686 -41 102 C-44.23579288 95.26450206 -43.09522246 88.93937058 -40.70996094 82.03417969 C-40.16330217 80.53557901 -39.60843231 79.03995678 -39.046875 77.546875 C-38.74151321 76.72696075 -38.43615143 75.90704651 -38.12153625 75.06228638 C-33.75561164 63.50755649 -28.78638471 52.19577784 -23.8840332 40.86132812 C-22.61778777 37.92861879 -21.36115488 34.99193026 -20.10546875 32.0546875 C-19.53048897 30.7372908 -19.53048897 30.7372908 -18.94389343 29.39328003 C-16.63291168 23.97247631 -15.11184858 18.79037595 -14 13 C-25.07958416 14.29315031 -33.77066949 23.97254766 -42 31 C-42.33 30.34 -42.66 29.68 -43 29 C-34.8225886 15.43511756 -17.81734239 -3.38529505 0 0 Z M14 60 C15 62 15 62 15 62 Z " fill="#FEBE62" transform="translate(553,51)"/>
<path d="M0 0 C5.80370306 4.83641922 7.51958329 10.60927592 8.25 17.875 C8.52873419 24.88182796 7.98784336 31.68341578 7.0625 38.625 C6.93447998 39.6056543 6.80645996 40.58630859 6.67456055 41.59667969 C5.29982087 51.50365935 3.091379 61.18455513 0.66137695 70.87988281 C0.14902814 73.02518406 0.14902814 73.02518406 0.25 75.875 C7.90185523 67.77373132 15.31664288 59.60813101 22.25 50.875 C23.14188087 49.79706009 24.03517838 48.72029115 24.9296875 47.64453125 C29.95056102 41.53409937 34.41044238 35.32626825 38.3125 28.4375 C38.68246094 27.7875708 39.05242187 27.1376416 39.43359375 26.46801758 C44.08171764 17.96138295 45.30070469 10.35745846 43.25 0.875 C45.31172613 0.53691314 47.3744203 0.20472639 49.4375 -0.125 C50.58605469 -0.310625 51.73460937 -0.49625 52.91796875 -0.6875 C55.75415393 -1.05989477 58.39719564 -1.21096021 61.25 -1.125 C63.30044691 2.97589381 62.88225265 7.43329233 62.25 11.875 C58.75496094 21.560312 53.11624056 29.27621466 46.25 36.875 C45.81107422 37.36210449 45.37214844 37.84920898 44.91992188 38.35107422 C42.60390311 40.91500253 40.26931232 43.46062998 37.91796875 45.9921875 C35.60425129 48.49222189 33.32680061 51.01785741 31.0625 53.5625 C26.81662585 58.29208133 22.4775273 62.93131541 18.125 67.5625 C17.45573486 68.27559326 16.78646973 68.98868652 16.09692383 69.72338867 C12.93149143 73.08243983 9.74028036 76.40413225 6.46484375 79.65625 C4.18205958 81.92322631 2.0045784 84.21926353 -0.0625 86.6875 C-1.28860374 88.08602458 -2.51805876 89.48161485 -3.75 90.875 C-4.513125 91.75285156 -5.27625 92.63070312 -6.0625 93.53515625 C-11.63583337 99.58744796 -15.5278756 102.24934943 -23.75 102.875 C-22.62101591 97.65695911 -21.41454534 92.46694052 -20.12890625 87.28515625 C-10.33674818 52.84187695 -10.33674818 52.84187695 -12.75 17.875 C-14.05531378 16.02652208 -14.05531378 16.02652208 -15.75 14.875 C-21.65778419 14.73760967 -25.55065909 18.11597833 -29.75 21.875 C-34.57677189 26.80338814 -38.70296453 32.30106104 -42.75 37.875 C-43.41 37.545 -44.07 37.215 -44.75 36.875 C-38.73045328 21.2745027 -29.73361091 7.45172035 -14.0625 -0.1875 C-9.07683038 -1.59853857 -4.93635284 -2.01941707 0 0 Z " fill="#FEBE62" transform="translate(447.75,52.125)"/>
<path d="M0 0 C-0.6660697 3.9422403 -1.83639549 7.45301627 -3.28515625 11.17578125 C-3.73310547 12.33271484 -4.18105469 13.48964844 -4.64257812 14.68164062 C-5.11115234 15.87982422 -5.57972656 17.07800781 -6.0625 18.3125 C-6.53494141 19.53001953 -7.00738281 20.74753906 -7.49414062 22.00195312 C-8.65914036 25.00271003 -9.82909305 28.00154318 -11 31 C-2.42 31 6.16 31 15 31 C9.77002252 38.84496623 9.77002252 38.84496623 7 41 C4.34277344 41.36230469 4.34277344 41.36230469 1.359375 41.171875 C-0.24550781 41.08486328 -0.24550781 41.08486328 -1.8828125 40.99609375 C-2.99398437 40.91488281 -4.10515625 40.83367188 -5.25 40.75 C-6.37664062 40.68425781 -7.50328125 40.61851563 -8.6640625 40.55078125 C-11.44441539 40.38584506 -14.2221037 40.20159083 -17 40 C-17.59566772 41.85359131 -17.59566772 41.85359131 -18.20336914 43.74462891 C-20.16193011 49.61451874 -22.44863671 55.34198645 -24.74609375 61.0859375 C-25.19847916 62.22350494 -25.65086456 63.36107239 -26.11695862 64.53311157 C-27.5547874 68.14801592 -28.99586114 71.76161362 -30.4375 75.375 C-31.87526369 78.98136442 -33.31226207 82.58802694 -34.74732971 86.19546509 C-35.63723937 88.43226369 -36.52869208 90.66844926 -37.42198181 92.90390015 C-39.42353078 97.93260992 -41.39390926 102.97173051 -43.28930664 108.04150391 C-43.7757943 109.34155869 -43.7757943 109.34155869 -44.27210999 110.6678772 C-45.16120444 113.51649087 -45.32033373 116.036913 -45 119 C-35.33712124 117.79568227 -27.43027139 112.00382961 -20 106 C-19.01 106.495 -19.01 106.495 -18 107 C-23.20241884 118.42054802 -33.08839402 126.11712117 -44.375 131.1875 C-49.20538257 132.94984996 -52.90003526 133.80525759 -58 133 C-60.9375 131.5 -60.9375 131.5 -63 129 C-66.00434353 118.48479765 -60.64018209 107.42633495 -56.4375 97.875 C-55.75240356 96.28679443 -55.75240356 96.28679443 -55.0534668 94.66650391 C-54.00029537 92.22534659 -52.94386853 89.78580289 -51.88378906 87.34765625 C-49.66184121 82.22927819 -47.46798551 77.09892191 -45.2734375 71.96875 C-44.44735498 70.03791977 -43.62126446 68.10709295 -42.79516602 66.17626953 C-42.38533478 65.2183551 -41.97550354 64.26044067 -41.55325317 63.27349854 C-39.55510451 58.60566363 -37.55314585 53.93946513 -35.55078125 49.2734375 C-35.19192841 48.43719849 -34.83307556 47.60095947 -34.46334839 46.73937988 C-33.64230191 44.82622336 -32.82116259 42.91310669 -32 41 C-37.28 40.67 -42.56 40.34 -48 40 C-45.87961829 35.75923658 -44.86257454 33.7265232 -41 31 C-36.6360417 30.57101866 -32.37042693 30.71205093 -28 31 C-27.649375 29.845 -27.29875 28.69 -26.9375 27.5 C-26.29317003 25.66613777 -25.64704626 23.8329056 -25 22 C-24.80615723 21.37303223 -24.61231445 20.74606445 -24.41259766 20.10009766 C-20.2596584 6.86556002 -20.2596584 6.86556002 -14.3125 3.63671875 C-9.70849904 1.60950913 -5.07010024 0 0 0 Z " fill="#FEBF62" transform="translate(181,22)"/>
<path d="M0 0 C1.17635103 3.52905308 0.80571137 4.11730261 -0.6171875 7.4140625 C-0.97683594 8.25710937 -1.33648437 9.10015625 -1.70703125 9.96875 C-2.09246094 10.8453125 -2.47789062 11.721875 -2.875 12.625 C-3.25269531 13.50929688 -3.63039063 14.39359375 -4.01953125 15.3046875 C-6.83319997 21.83319997 -6.83319997 21.83319997 -8 23 C-10.33297433 23.04092937 -12.66705225 23.04241723 -15 23 C-14.83242188 22.25234375 -14.66484375 21.5046875 -14.4921875 20.734375 C-14.28851563 19.74953125 -14.08484375 18.7646875 -13.875 17.75 C-13.56175781 16.28820312 -13.56175781 16.28820312 -13.2421875 14.796875 C-12.97657587 11.72948914 -13.19890839 10.4694212 -15 8 C-20.02123916 6.32625361 -24.32232007 6.43955999 -29.1875 8.5 C-32.91884658 10.57216528 -34.76496326 12.81720693 -36.3671875 16.7578125 C-39.23693829 26.92594186 -34.7728174 35.6910346 -31 45 C-27.38000279 54.09387177 -24.88487436 62.9936463 -27.8125 72.69140625 C-33.33902141 84.95337562 -43.98807699 93.99954443 -56.375 98.875 C-67.06847949 102.19366605 -75.74893597 101.67353002 -86 97 C-86.99 96.34 -87.98 95.68 -89 95 C-87.38989473 90.92623969 -84.46177729 88.23492931 -81.375 85.25 C-80.859375 84.74339844 -80.34375 84.23679687 -79.8125 83.71484375 C-78.54616661 82.47196098 -77.2736856 81.23534724 -76 80 C-73.53563711 81.16705558 -71.69407152 82.25101824 -69.5625 84 C-65.51449977 87.15941481 -62.67226309 88.22592175 -57.5625 87.875 C-52.26352729 87.12556126 -48.7296611 84.96823504 -45.1875 80.9375 C-42.83123996 77.09307573 -42.32717624 73.38469417 -43 69 C-44.44137868 64.57418993 -46.22654381 60.30147233 -48 56 C-48.92368194 53.648577 -49.8406111 51.29448755 -50.75 48.9375 C-51.15734375 47.89464844 -51.5646875 46.85179687 -51.984375 45.77734375 C-54.75945671 38.18856261 -54.96411148 30.94803235 -52.09375 23.3203125 C-46.42106138 11.28610878 -36.11137462 2.57308808 -23.8125 -2.25 C-15.47103503 -3.89094393 -7.65862305 -3.90156269 0 0 Z " fill="#FEBE62" transform="translate(356,54)"/>
<path d="M0 0 C-2.22018182 7.19696522 -5.14367224 13.82998532 -8.375 20.625 C-15.37261099 35.56345332 -21.72913956 50.74524935 -28 66 C-28.43957031 67.0626709 -28.87914062 68.1253418 -29.33203125 69.22021484 C-30.47930823 71.99780882 -31.61720083 74.77897534 -32.75 77.5625 C-33.07323242 78.3467334 -33.39646484 79.1309668 -33.72949219 79.93896484 C-35.34390118 83.95706936 -36.47947059 87.66453792 -37 92 C-25.64004703 87.95662691 -17.31794488 79.45512238 -9 71 C-8.01 71.495 -8.01 71.495 -7 72 C-11.63811685 85.94131634 -23.50229521 95.0159885 -36 102 C-41.55442561 104.14602808 -46.71370375 105.3482241 -52.4375 103 C-54.91680369 99.82649128 -55.25207588 96.89652774 -55 93 C-52.53966364 82.3547438 -47.95476138 72.32435478 -43.6875 62.3125 C-41.10223131 56.21776971 -38.5325929 50.11682732 -36 44 C-35.66373596 43.18835388 -35.32747192 42.37670776 -34.98101807 41.54046631 C-33.98110008 39.10874846 -32.99781816 36.6709586 -32.01953125 34.23046875 C-31.71536789 33.49306961 -31.41120453 32.75567047 -31.0978241 31.9959259 C-30.82166763 31.29755112 -30.54551117 30.59917633 -30.26098633 29.87963867 C-30.01665359 29.27351242 -29.77232086 28.66738617 -29.52058411 28.04289246 C-28.75306453 25.38233119 -28.75306453 25.38233119 -29 20 C-33.62 20.33 -38.24 20.66 -43 21 C-42 16 -42 16 -41 13 C-38.23096068 11.80492691 -35.55130758 10.80361575 -32.6953125 9.86328125 C-31.44293289 9.43682564 -31.44293289 9.43682564 -30.16525269 9.00175476 C-28.39672092 8.40207735 -26.62623407 7.80814008 -24.85400391 7.21948242 C-22.13910761 6.31718865 -19.43059904 5.39753657 -16.72265625 4.47460938 C-15.00555609 3.89480243 -13.28811873 3.31599295 -11.5703125 2.73828125 C-10.35143845 2.3258593 -10.35143845 2.3258593 -9.10794067 1.90510559 C-5.96854716 0.86634335 -3.32973262 0 0 0 Z " fill="#FEBF62" transform="translate(407,51)"/>
<path d="M0 0 C4.95 0 9.9 0 15 0 C11.57681423 8.44385823 8.09469858 16.83913576 4.38354492 25.16040039 C-0.74362893 36.66645696 -5.69648969 48.2432576 -10.53128052 59.87493896 C-11.25496597 61.61187291 -11.98267096 63.3471381 -12.71456909 65.08062744 C-13.75099502 67.53868747 -14.77178311 70.00271491 -15.7890625 72.46875 C-16.09897629 73.19605316 -16.40889008 73.92335632 -16.72819519 74.67269897 C-18.82034149 79.81105374 -19.58233385 84.46473114 -20 90 C-13.51138668 91.02451789 -9.07534929 87.58855218 -4 84 C-1.23454034 81.76533018 1.41502814 79.44056003 4 77 C4 80 4 80 2.3828125 82.015625 C-6.05216824 90.36304539 -16.40949131 100.03478251 -28.9375 100.375 C-32.69120287 100.30879713 -32.69120287 100.30879713 -35 98 C-36.40895657 89.46264581 -33.7225221 82.40371112 -30.375 74.6875 C-29.9207666 73.59896729 -29.4665332 72.51043457 -28.99853516 71.38891602 C-27.68430302 68.2509707 -26.34538155 65.12469018 -25 62 C-24.33212326 60.42238673 -23.66530007 58.84432661 -23 57.265625 C-21.68885534 54.16720696 -20.35518651 51.07946852 -19 48 C-20.65 49.32 -22.3 50.64 -24 52 C-23.54048663 48.48626154 -21.86357818 46.32425233 -19.7182312 43.58010864 C-13.10586586 35.09852876 -9.45675782 26.18262736 -5.875 16.125 C-5.2962141 14.55006574 -4.71549273 12.97584138 -4.1328125 11.40234375 C-2.7291725 7.61012317 -1.3659877 3.80678078 0 0 Z " fill="#FEBF62" transform="translate(593,53)"/>
<path d="M0 0 C4.95 0 9.9 0 15 0 C12.24641606 7.46132423 9.27050367 14.71362228 5.96484375 21.94140625 C1.0763286 32.7273577 -3.58931612 43.60188899 -8.16894531 54.5222168 C-9.06550714 56.6542645 -9.96730909 58.78411534 -10.87402344 60.91186523 C-12.20876522 64.04460232 -13.52790269 67.18350645 -14.84375 70.32421875 C-15.44987122 71.73534187 -15.44987122 71.73534187 -16.0682373 73.17497253 C-18.43264688 78.87926776 -19.61324253 83.82956763 -20 90 C-13.5135867 91.02417052 -9.08978748 87.55884353 -4 84 C-1.56642196 82.08080168 0.70878214 80.09198152 3 78 C3.99 78.495 3.99 78.495 5 79 C-3.35217863 87.83198464 -13.72640496 98.72787773 -26.4921875 100.30859375 C-28.74155092 100.3696787 -30.78584684 100.4025733 -33 100 C-35.47865844 97.52134156 -35.35668609 96.65055288 -35.44921875 93.21484375 C-35.31155934 85.99419585 -32.6852346 80.09345376 -29.8125 73.5625 C-29.32974609 72.42490234 -28.84699219 71.28730469 -28.34960938 70.11523438 C-27.3889739 67.85483975 -26.42053163 65.59774506 -25.44384766 63.34423828 C-23.2447867 58.25077582 -21.12222663 53.12585014 -19 48 C-20.98 48.495 -20.98 48.495 -23 49 C-20.98853255 45.28652163 -19.0474761 42.02967937 -16.28125 38.84375 C-11.29017879 32.26023852 -8.93848388 24.18090595 -6.125 16.5 C-5.52724412 14.89798832 -4.92829557 13.29642112 -4.328125 11.6953125 C-2.87160671 7.80186671 -1.43139024 3.90275009 0 0 Z " fill="#FEBF62" transform="translate(269,53)"/>
<path d="M0 0 C1.20946289 0.00141495 2.41892578 0.0028299 3.66503906 0.00428772 C7.50588515 0.00985916 11.3466717 0.02240641 15.1875 0.03515625 C17.8007804 0.04017494 20.41406173 0.0447372 23.02734375 0.04882812 C29.41408261 0.05981923 35.80078705 0.07652882 42.1875 0.09765625 C40.77231442 3.09835705 39.35507567 6.09808392 37.9375 9.09765625 C37.54175781 9.93683594 37.14601562 10.77601562 36.73828125 11.640625 C34.28576712 16.82708931 31.77217342 21.97573462 29.1875 27.09765625 C26.8775 27.09765625 24.5675 27.09765625 22.1875 27.09765625 C22.5175 22.80765625 22.8475 18.51765625 23.1875 14.09765625 C16.66119815 10.52372905 11.18933215 9.96556349 3.8125 10.03515625 C2.56726563 10.04417969 1.32203125 10.05320312 0.0390625 10.0625 C-0.90195313 10.07410156 -1.84296875 10.08570313 -2.8125 10.09765625 C-5.48243758 16.41451331 -8.15163178 22.73168411 -10.8203125 29.04907227 C-11.72801933 31.19758192 -12.63589553 33.34602003 -13.54394531 35.49438477 C-14.85005648 38.58460949 -16.15555588 41.67509204 -17.4609375 44.765625 C-17.86621674 45.72413864 -18.27149597 46.68265228 -18.6890564 47.67021179 C-19.25942123 49.02104607 -19.25942123 49.02104607 -19.84130859 50.39916992 C-20.3409462 51.58164558 -20.3409462 51.58164558 -20.85067749 52.78800964 C-21.86134484 55.21494849 -22.83612524 57.65671934 -23.8125 60.09765625 C-13.5825 60.09765625 -3.3525 60.09765625 7.1875 60.09765625 C5.3307125 63.81123124 4.23142008 65.2056578 1.1875 67.78515625 C0.48625 68.38714844 -0.215 68.98914063 -0.9375 69.609375 C-3.29207605 71.47831974 -4.20424246 72.13817009 -7.24267578 71.93579102 C-8.2376709 71.80487061 -9.23266602 71.6739502 -10.2578125 71.5390625 C-11.33417969 71.40048828 -12.41054687 71.26191406 -13.51953125 71.11914062 C-14.64746094 70.96767578 -15.77539062 70.81621094 -16.9375 70.66015625 C-18.64099609 70.43875977 -18.64099609 70.43875977 -20.37890625 70.21289062 C-23.19086939 69.84662652 -26.00195849 69.47464928 -28.8125 69.09765625 C-28.93093262 69.8153418 -29.04936523 70.53302734 -29.17138672 71.27246094 C-30.30675759 76.27570225 -32.73469555 80.73699907 -34.9375 85.34765625 C-35.39898437 86.34667969 -35.86046875 87.34570312 -36.3359375 88.375 C-39.47388093 94.96985364 -43.09550884 100.53154902 -47.8125 106.09765625 C-48.52277344 106.96777344 -49.23304687 107.83789062 -49.96484375 108.734375 C-54.16581613 113.56043736 -58.51462995 117.50468587 -63.8125 121.09765625 C-56.35375953 122.51780044 -48.81220836 122.68985772 -41.24267578 122.99804688 C-39.70953288 123.06088818 -38.17659389 123.12915802 -36.64404297 123.20507812 C-24.29928624 123.78909268 -15.58403735 121.57089511 -5.58984375 114.26953125 C-3.8125 113.09765625 -3.8125 113.09765625 -1.8125 113.09765625 C-3.3886321 121.64514186 -8.03127461 125.994952 -14.8125 131.09765625 C-22.26088664 136.20138238 -28.65837135 139.39211276 -37.859375 139.28125 C-38.54408875 139.27387314 -39.22880249 139.26649628 -39.93426514 139.25889587 C-48.39701699 139.13244488 -56.85254852 138.72175616 -65.3046875 138.2980957 C-68.07271402 138.15964537 -70.84099352 138.02762595 -73.609375 137.89648438 C-82.69286032 137.45803223 -91.75754932 136.96419777 -100.8125 136.09765625 C-99.43404045 134.44350479 -98.04774529 132.79543046 -96.62890625 131.17578125 C-95.42093151 129.79375423 -94.24062779 128.38703046 -93.08984375 126.95703125 C-88.21311387 121.36587598 -84.00386899 120.06074942 -76.80078125 118.71484375 C-71.2128895 117.56074323 -68.19548225 114.89528301 -64.9375 110.41015625 C-57.22293311 98.01528657 -52.05239769 84.06484682 -46.46386719 70.63208008 C-41.04600049 57.61153241 -35.52778094 44.63437318 -30 31.66015625 C-29.08821017 29.51937103 -28.17642619 27.37858333 -27.26464844 25.23779297 C-25.11476319 20.19072641 -22.96401847 15.14402678 -20.8125 10.09765625 C-22.06877197 10.23937256 -23.32504395 10.38108887 -24.61938477 10.52709961 C-25.67936424 10.64667274 -25.67936424 10.64667274 -26.76075745 10.7686615 C-35.54453786 12.17713141 -44.08693935 18.53528289 -49.8125 25.09765625 C-53.6159185 30.56129712 -56.51175251 35.86163248 -58.25 42.28515625 C-60.62268321 48.90934421 -67.34605009 51.46946223 -73.2578125 54.48046875 C-76.8125 56.09765625 -76.8125 56.09765625 -78.8125 56.09765625 C-75.14561701 38.94338753 -64.82900986 23.46563839 -50.75 13.16015625 C-49.12303405 12.10951366 -47.47742929 11.08703915 -45.8125 10.09765625 C-44.66394531 9.40929687 -44.66394531 9.40929687 -43.4921875 8.70703125 C-30.00354396 1.31721334 -15.08326605 -0.06700914 0 0 Z M-60.14453125 23.5234375 C-64.57409757 28.61706147 -68.10488967 33.99753395 -71.3125 39.91015625 C-71.82031006 40.84323608 -71.82031006 40.84323608 -72.33837891 41.79516602 C-74.27982108 45.54684466 -75.34987048 48.90186356 -75.8125 53.09765625 C-66.09784793 49.79699425 -66.09784793 49.79699425 -59.53515625 42.3515625 C-58.03420046 38.92959372 -56.78104873 35.41465648 -55.51855469 31.89892578 C-51.87225607 22.59657752 -42.45990366 14.91394769 -33.63671875 10.7890625 C-30.05103046 9.43003289 -26.89708372 8.97876531 -23.0625 9.03515625 C-22.26328125 9.04417969 -21.4640625 9.05320312 -20.640625 9.0625 C-20.03734375 9.07410156 -19.4340625 9.08570313 -18.8125 9.09765625 C-25.13028253 24.10424046 -31.46454666 39.10380969 -37.8125 54.09765625 C-38.23597717 55.09835144 -38.65945435 56.09904663 -39.09576416 57.13006592 C-41.51091107 62.83552879 -43.93212791 68.53834968 -46.36187744 74.23760986 C-47.1093571 75.99284619 -47.85513905 77.74880666 -48.59906006 79.5055542 C-52.23209514 88.0807908 -55.94288578 96.60914461 -60.01953125 104.984375 C-60.32718918 105.63195267 -60.63484711 106.27953033 -60.951828 106.94673157 C-63.85257319 112.77343488 -67.84863846 117.37502381 -73.8125 120.09765625 C-75.47907435 120.24454077 -77.14575492 120.39022189 -78.8125 120.53515625 C-87.02723477 121.76792682 -92.39641688 128.25104188 -97.8125 134.09765625 C-97.8125 134.42765625 -97.8125 134.75765625 -97.8125 135.09765625 C-91.66451331 135.38905206 -85.51625282 135.67348624 -79.36767578 135.95214844 C-77.28686355 136.04735526 -75.20612954 136.1442913 -73.12548828 136.24316406 C-66.02260538 136.57992387 -58.91956883 136.86526322 -51.8125 137.09765625 C-50.79820923 137.13310547 -49.78391846 137.16855469 -48.7388916 137.20507812 C-45.77641985 137.29826079 -42.8150342 137.3594042 -39.8515625 137.41015625 C-38.97196869 137.43988525 -38.09237488 137.46961426 -37.18612671 137.50024414 C-28.97562516 137.57524121 -22.387999 134.82927196 -16.0625 129.59765625 C-15.32386719 128.99179688 -14.58523437 128.3859375 -13.82421875 127.76171875 C-13.16035156 127.21257812 -12.49648437 126.6634375 -11.8125 126.09765625 C-10.843125 125.39640625 -9.87375 124.69515625 -8.875 123.97265625 C-6.5363067 121.84657143 -5.72798995 120.09380517 -4.8125 117.09765625 C-6.9539955 118.16088132 -9.07925683 119.24053873 -11.18708801 120.36955261 C-18.26837919 123.93784229 -23.96040789 124.78164968 -31.82421875 124.5859375 C-32.91845657 124.57886276 -34.0126944 124.57178802 -35.14009094 124.5644989 C-38.59412502 124.53677718 -42.04646585 124.47407932 -45.5 124.41015625 C-47.85870035 124.38504473 -50.21742641 124.36223661 -52.57617188 124.34179688 C-58.32218064 124.28702389 -64.06721931 124.20362405 -69.8125 124.09765625 C-69.8125 123.43765625 -69.8125 122.77765625 -69.8125 122.09765625 C-68.75482422 121.75927734 -68.75482422 121.75927734 -67.67578125 121.4140625 C-64.22133017 119.8258633 -61.7264817 117.62084819 -59 115.03515625 C-58.47301514 114.53910889 -57.94603027 114.04306152 -57.40307617 113.53198242 C-55.86118481 112.06545462 -54.33465479 110.58462867 -52.8125 109.09765625 C-51.70261719 108.02644531 -51.70261719 108.02644531 -50.5703125 106.93359375 C-40.25421081 96.20319079 -34.4232613 81.66451316 -28.8125 68.09765625 C-26.89579274 68.24295503 -24.97913703 68.38893394 -23.0625 68.53515625 C-21.87914063 68.61636719 -20.69578125 68.69757813 -19.4765625 68.78125 C-15.8125 69.09765625 -15.8125 69.09765625 -12.5234375 69.6328125 C-6.76587161 70.62990288 -6.76587161 70.62990288 -1.5078125 68.63671875 C0.27889308 66.87871527 1.79807071 65.18180018 3.1875 63.09765625 C3.1875 62.76765625 3.1875 62.43765625 3.1875 62.09765625 C-6.7125 62.09765625 -16.6125 62.09765625 -26.8125 62.09765625 C-25.245 58.57078125 -23.6775 55.04390625 -22.0625 51.41015625 C-15.72551286 37.07656411 -9.74744222 22.6012983 -3.8125 8.09765625 C2.70970964 7.95603198 8.78813195 8.11028461 15.1875 9.41015625 C16.445625 9.65378906 17.70375 9.89742187 19 10.1484375 C22.05830278 11.05918208 23.42977582 11.48017568 25.1875 14.09765625 C25.49683684 18.27370353 25.17247223 22.03464579 24.1875 26.09765625 C26.11680355 25.92803808 26.11680355 25.92803808 28.1875 25.09765625 C29.63960096 23.17530021 29.63960096 23.17530021 30.73046875 20.73046875 C31.16423828 19.84488281 31.59800781 18.95929687 32.04492188 18.046875 C32.48384766 17.11488281 32.92277344 16.18289062 33.375 15.22265625 C33.82552734 14.29839844 34.27605469 13.37414062 34.74023438 12.421875 C36.39310161 9.00710581 37.98680299 5.69974727 39.1875 2.09765625 C31.36290829 1.99523283 23.53849293 1.92576631 15.71337891 1.87792969 C13.05777966 1.86024445 10.40307365 1.83078313 7.74755859 1.79589844 C-18.27899226 1.46285262 -41.0810234 3.69355748 -60.14453125 23.5234375 Z " fill="#F65E58" transform="translate(100.8125,16.90234375)"/>
<path d="M0 0 C2.5625 1.4375 2.5625 1.4375 4 4 C6.18227819 18.79099664 -4.236076 35.9299976 -10 49.125 C-19.80048634 67.95674214 -19.80048634 67.95674214 -24 88 C-18.87992531 86.68559277 -15.62223053 84.34321105 -11.875 80.75 C-11.03195312 79.95372192 -11.03195312 79.95372192 -10.171875 79.14135742 C-1.30837238 70.61197507 6.3034696 61.0297496 13.8125 51.3125 C14.32748047 50.64839111 14.84246094 49.98428223 15.37304688 49.30004883 C16.95253927 47.2245573 18.48479915 45.12287539 20 43 C20.5664624 42.21439697 21.1329248 41.42879395 21.71655273 40.61938477 C27.11047699 32.69871129 30.23190369 24.26716577 33.4375 15.3125 C33.98252875 13.82052638 34.52874566 12.32898625 35.07617188 10.83789062 C36.40007919 7.23069384 37.69928081 3.61595664 39 0 C44.94 0 50.88 0 57 0 C56.18864526 4.05677371 55.35669631 6.73174239 53.65625 10.390625 C53.15996094 11.47279297 52.66367187 12.55496094 52.15234375 13.66992188 C51.60707031 14.85134766 51.06179688 16.03277344 50.5 17.25 C44.72995509 29.88922518 39.30966432 42.66126641 34 55.5 C33.45653931 56.81127869 33.45653931 56.81127869 32.90209961 58.14904785 C24.96420865 74.17862307 24.96420865 74.17862307 21 91 C26.12543618 90.51588834 29.14206579 88.90619737 33.3125 85.9375 C33.87283936 85.53990479 34.43317871 85.14230957 35.01049805 84.73266602 C39.97035515 81.15365808 44.56217655 77.20847857 49 73 C49.33 73.66 49.66 74.32 50 75 C46.85193274 82.20499076 42.17292191 87.30645076 36 92 C35.12859375 92.68191406 34.2571875 93.36382812 33.359375 94.06640625 C26.80843547 99.03450704 20.19288272 103.94703752 11.75 104.5625 C8 104 8 104 5 101.9375 C3.07804579 99.11462976 2.31022147 97.59270158 2.58203125 94.19140625 C4.53395527 83.95748687 8.7511146 74.44668853 13 65 C12.67 64.67 12.34 64.34 12 64 C11.55011719 64.64324219 11.10023438 65.28648438 10.63671875 65.94921875 C-13.48768803 99.83941746 -13.48768803 99.83941746 -30 104 C-34.1304645 104.34420537 -37.62414037 104.6256686 -41 102 C-44.23579288 95.26450206 -43.09522246 88.93937058 -40.70996094 82.03417969 C-40.16330217 80.53557901 -39.60843231 79.03995678 -39.046875 77.546875 C-38.74151321 76.72696075 -38.43615143 75.90704651 -38.12153625 75.06228638 C-33.75561164 63.50755649 -28.78638471 52.19577784 -23.8840332 40.86132812 C-22.61778777 37.92861879 -21.36115488 34.99193026 -20.10546875 32.0546875 C-19.53048897 30.7372908 -19.53048897 30.7372908 -18.94389343 29.39328003 C-16.63291168 23.97247631 -15.11184858 18.79037595 -14 13 C-25.07958416 14.29315031 -33.77066949 23.97254766 -42 31 C-42.33 30.34 -42.66 29.68 -43 29 C-34.8225886 15.43511756 -17.81734239 -3.38529505 0 0 Z M-38 23 C-37.67 23.66 -37.34 24.32 -37 25 C-36.1646875 24.22076172 -36.1646875 24.22076172 -35.3125 23.42578125 C-22.51057009 11.7267203 -22.51057009 11.7267203 -16 11.6875 C-15.01 11.790625 -14.02 11.89375 -13 12 C-13.30988079 20.62971035 -16.53032349 27.77095733 -19.9375 35.5625 C-20.52791729 36.93799811 -21.11701364 38.31406391 -21.70483398 39.69067383 C-22.89259175 42.46897509 -24.08579633 45.24482034 -25.28417969 48.01855469 C-27.74765775 53.72585867 -30.16039334 59.45413945 -32.5625 65.1875 C-32.95493896 66.11054932 -33.34737793 67.03359863 -33.75170898 67.98461914 C-40.43076581 82.95898162 -40.43076581 82.95898162 -41 99 C-39.47685733 101.14368228 -38.59366998 101.87002492 -36.01953125 102.43359375 C-24.96199431 102.45316461 -17.93218126 96.20487524 -10 89 C-0.06088102 79.06088102 8.20228252 67.55835486 15.77709961 55.76098633 C18.79583027 51.10208487 18.79583027 51.10208487 21 50 C20.58637207 50.96824707 20.17274414 51.93649414 19.74658203 52.93408203 C18.20481333 56.54488606 16.66615969 60.15701062 15.12841797 63.76953125 C14.46389579 65.32946069 13.7985423 66.88903628 13.13232422 68.44824219 C12.1719353 70.69632747 11.2145957 72.94569067 10.2578125 75.1953125 C9.96190216 75.8861795 9.66599182 76.57704651 9.3611145 77.28884888 C6.90390654 83.07998727 4.71471285 88.36302588 4.75 94.75 C4.74484375 95.69359375 4.7396875 96.6371875 4.734375 97.609375 C4.76858627 100.18504964 4.76858627 100.18504964 7 102 C16.34171841 103.20538302 23.2207993 99.36994921 30.7421875 94.06640625 C35.86115961 90.0754751 40.54689604 85.71852075 45 81 C44.67 80.34 44.34 79.68 44 79 C43.45472656 79.51949219 42.90945313 80.03898437 42.34765625 80.57421875 C30.41100602 91.61306965 30.41100602 91.61306965 22.4375 92.3125 C21.633125 92.209375 20.82875 92.10625 20 92 C20.48209226 85.43372486 21.76339134 80.23097612 24.359375 74.20703125 C24.70033707 73.39034973 25.04129913 72.57366821 25.39259338 71.73223877 C26.50037029 69.08738095 27.62482096 66.44999559 28.75 63.8125 C29.52195581 61.97945494 30.29302553 60.14603647 31.06323242 58.31225586 C36.72598262 44.86291883 42.50787877 31.46413342 48.36328125 18.09765625 C50.68706851 12.77269232 52.87454548 7.40703514 55 2 C50.05 2 45.1 2 40 2 C39.20078125 4.26875 38.4015625 6.5375 37.578125 8.875 C26.81309654 38.88942215 26.81309654 38.88942215 16.43652344 50.37158203 C14.45156623 52.62169498 12.66780081 55.00596545 10.85961914 57.39868164 C-11.4020715 86.68785516 -11.4020715 86.68785516 -22.625 89.5625 C-24.295625 89.7790625 -24.295625 89.7790625 -26 90 C-25.24060852 77.74934766 -19.65323879 66.950944 -14.8125 55.875 C-13.12649701 51.9787177 -11.44699784 48.07965187 -9.76953125 44.1796875 C-9.36243423 43.23337463 -8.95533722 42.28706177 -8.53590393 41.31207275 C-5.92832717 35.22767224 -3.368973 29.12741429 -0.921875 22.9765625 C-0.63049149 22.26063934 -0.33910797 21.54471619 -0.03889465 20.80709839 C2.11081753 15.31202333 3.31116557 9.84803051 2 4 C-0.41816448 1.58183552 -1.16826826 1.65211937 -4.5 1.5625 C-18.16291718 1.95342753 -28.96407799 13.78035314 -38 23 Z M14 60 C15 62 15 62 15 62 Z " fill="#F55C58" transform="translate(553,51)"/>
<path d="M0 0 C2.55637329 4.47365326 2.13580932 9.80283117 1.01806641 14.76416016 C0.28757294 16.97053773 -0.54863998 19.10243245 -1.4375 21.25 C-1.77160889 22.09393311 -2.10571777 22.93786621 -2.44995117 23.80737305 C-7.29418567 35.87328595 -12.46801914 47.81462148 -17.59545898 59.76220703 C-17.96091827 60.61478592 -18.32637756 61.46736481 -18.70291138 62.34577942 C-19.39116834 63.95008118 -20.08097608 65.55371896 -20.77267456 67.15653992 C-25.27151379 76.55483218 -25.27151379 76.55483218 -26.5 86.625 C-21.25909644 85.30495233 -17.99509923 82.80701726 -14.1875 79.125 C-13.33285156 78.31325317 -13.33285156 78.31325317 -12.4609375 77.48510742 C-2.33129379 67.76276456 6.20527154 56.91973261 14.5 45.625 C15.21341553 44.69679443 15.92683105 43.76858887 16.66186523 42.81225586 C23.12783735 34.06095023 26.89513322 25.00706712 30.5625 14.8125 C31.14610899 13.2331031 31.73138739 11.65432203 32.31835938 10.07617188 C33.73468959 6.2666631 35.11618657 2.44706274 36.5 -1.375 C42.44 -1.375 48.38 -1.375 54.5 -1.375 C53.69803441 2.63482793 52.90919524 5.23711778 51.2265625 8.83984375 C50.7404248 9.8963916 50.25428711 10.95293945 49.75341797 12.04150391 C49.21604004 13.20343262 48.67866211 14.36536133 48.125 15.5625 C42.37399248 28.15572324 36.95617162 40.88175641 31.65301514 53.66946411 C30.8065569 55.70977247 29.95767047 57.74907529 29.10626221 59.787323 C27.89438923 62.69123551 26.69194464 65.59887653 25.4921875 68.5078125 C25.1332843 69.36529587 24.7743811 70.22277924 24.40460205 71.10624695 C21.92524378 77.16465984 20.09662518 83.27882813 18.5 89.625 C23.62543618 89.14088834 26.64206579 87.53119737 30.8125 84.5625 C31.37283936 84.16490479 31.93317871 83.76730957 32.51049805 83.35766602 C37.47035515 79.77865808 42.06217655 75.83347857 46.5 71.625 C46.83 72.285 47.16 72.945 47.5 73.625 C42.02590686 86.72814602 29.17821724 95.5201609 16.8125 101.5625 C12.55879543 102.9268958 9.95895739 103.20034934 5.5 102.625 C2.5 100.5625 2.5 100.5625 0.5 97.625 C-0.03942788 91.84233315 1.2888098 87.29816978 3.1875 81.9375 C3.45643066 81.15455566 3.72536133 80.37161133 4.00244141 79.56494141 C6.2413026 73.13826333 8.74236168 66.84798913 11.5 60.625 C11.16379639 61.07713867 10.82759277 61.52927734 10.48120117 61.99511719 C-15.65597414 97.01032471 -15.65597414 97.01032471 -32.5 102.625 C-40.37621359 103.05461165 -40.37621359 103.05461165 -43.5 100.625 C-46.73363852 94.10188527 -45.47839832 87.01756624 -43.21484375 80.29296875 C-42.63840859 78.79322605 -42.04483469 77.29999798 -41.4375 75.8125 C-40.93814941 74.54237061 -40.93814941 74.54237061 -40.42871094 73.24658203 C-35.85783082 61.76828849 -30.98297794 50.40398531 -26.13647461 39.03979492 C-19.54225948 25.72990856 -19.54225948 25.72990856 -16.5 11.625 C-21.82080073 12.06166146 -25.21175274 14.11581854 -29.375 17.25 C-29.9848877 17.69714355 -30.59477539 18.14428711 -31.22314453 18.60498047 C-35.85859843 22.0418859 -40.28910955 25.67565554 -44.5 29.625 C-44.83 28.965 -45.16 28.305 -45.5 27.625 C-38.06673985 15.29453317 -16.80812835 -9.24447059 0 0 Z M-40.5 21.625 C-40.17 22.285 -39.84 22.945 -39.5 23.625 C-39.03851563 23.18929687 -38.57703125 22.75359375 -38.1015625 22.3046875 C-31.24792517 16.04701863 -24.09041277 10.04197447 -14.5 9.625 C-15.7051888 17.91111304 -18.52825425 25.14576343 -21.8125 32.8125 C-22.34126381 34.06682767 -22.86907571 35.32155698 -23.39599609 36.57666016 C-24.79525263 39.90397665 -26.20504911 43.22671637 -27.61761475 46.54840088 C-30.01099628 52.18096779 -32.38898807 57.82002898 -34.76400757 63.46035767 C-35.60862524 65.46120912 -36.45885311 67.45960348 -37.30981445 69.45776367 C-37.83431579 70.69833365 -38.35865654 71.93897155 -38.8828125 73.1796875 C-39.34059082 74.25718262 -39.79836914 75.33467773 -40.27001953 76.44482422 C-42.22767306 81.50643496 -43.78648785 86.35861847 -43.8125 91.8125 C-43.82925781 92.63105469 -43.84601563 93.44960937 -43.86328125 94.29296875 C-43.40969859 97.20467676 -42.57723169 98.54776831 -40.5 100.625 C-35.84287198 102.00594798 -31.09047655 100.76555015 -26.75 98.875 C-9.00227873 89.1040928 5.17499636 68.72200616 15.2578125 51.6484375 C16.5 49.625 16.5 49.625 18.5 48.625 C18.05084229 49.69983643 17.60168457 50.77467285 17.13891602 51.88208008 C15.47361048 55.86795764 13.80971245 59.85442146 12.14624023 63.84106445 C11.42592161 65.56681093 10.70522077 67.29239792 9.98413086 69.01782227 C8.9480511 71.49714046 7.91334472 73.9770279 6.87890625 76.45703125 C6.55596085 77.22900345 6.23301544 78.00097565 5.90028381 78.79634094 C3.80774219 83.81812498 2.34877085 87.73961813 2.3125 93.1875 C2.29832031 94.15816406 2.28414062 95.12882812 2.26953125 96.12890625 C2.24792254 98.79898916 2.24792254 98.79898916 4.5 100.625 C13.84171841 101.83038302 20.7207993 97.99494921 28.2421875 92.69140625 C33.36115961 88.7004751 38.04689604 84.34352075 42.5 79.625 C38.57960309 79.625 37.63430433 80.92524746 34.6875 83.4375 C29.06503559 88.04808403 25.02225886 91.1623042 17.5 90.625 C17.97557658 83.87408118 19.39041636 78.57705209 22.078125 72.39453125 C22.62299812 71.10264893 22.62299812 71.10264893 23.17887878 69.78466797 C24.35792532 66.99731061 25.55366751 64.21747631 26.75 61.4375 C27.56875101 59.51106908 28.38653358 57.5842263 29.20336914 55.65698242 C31.61787929 49.9719972 34.05457167 44.29674539 36.5 38.625 C36.85173279 37.80918457 37.20346558 36.99336914 37.56585693 36.15283203 C40.20606854 30.03398803 42.85034821 23.91700124 45.52636719 17.8137207 C48.01381369 12.13267387 50.39812182 6.46038382 52.5 0.625 C47.55 0.625 42.6 0.625 37.5 0.625 C36.72398437 2.85894531 35.94796875 5.09289063 35.1484375 7.39453125 C28.99664584 24.72707652 22.72238574 39.6006191 10.5 53.625 C9.49193796 54.84553787 8.48786019 56.06938011 7.48828125 57.296875 C4.88784294 60.46462486 2.21220974 63.55228016 -0.5 66.625 C-1.30308594 67.53894531 -2.10617188 68.45289062 -2.93359375 69.39453125 C-18.86009361 87.3084864 -18.86009361 87.3084864 -25.375 87.875 C-26.07625 87.7925 -26.7775 87.71 -27.5 87.625 C-27.80483163 81.69662121 -27.02721623 77.3733467 -24.60546875 71.91796875 C-24.30201538 71.20269516 -23.99856201 70.48742157 -23.68591309 69.75047302 C-22.69926651 67.43208818 -21.69339332 65.12258995 -20.6875 62.8125 C-20.00139856 61.20755687 -19.31692344 59.60191757 -18.6340332 57.99560547 C-17.25583614 54.7554729 -15.87202474 51.51783278 -14.484375 48.28173828 C-11.64265511 41.63546541 -8.9085831 34.94636066 -6.1875 28.25 C-5.51400513 26.60487427 -5.51400513 26.60487427 -4.8269043 24.92651367 C-0.35258278 14.63913307 -0.35258278 14.63913307 0.5 3.625 C-1.07739246 1.48353999 -2.01611739 0.73154296 -4.62890625 0.15625 C-19.62182136 -0.03627539 -30.63019756 11.48778912 -40.5 21.625 Z " fill="#F55C58" transform="translate(231.5,52.375)"/>
<path d="M0 0 C5.80370306 4.83641922 7.51958329 10.60927592 8.25 17.875 C8.52873419 24.88182796 7.98784336 31.68341578 7.0625 38.625 C6.93447998 39.6056543 6.80645996 40.58630859 6.67456055 41.59667969 C5.29982087 51.50365935 3.091379 61.18455513 0.66137695 70.87988281 C0.14902814 73.02518406 0.14902814 73.02518406 0.25 75.875 C7.90185523 67.77373132 15.31664288 59.60813101 22.25 50.875 C23.14188087 49.79706009 24.03517838 48.72029115 24.9296875 47.64453125 C29.95056102 41.53409937 34.41044238 35.32626825 38.3125 28.4375 C38.68246094 27.7875708 39.05242187 27.1376416 39.43359375 26.46801758 C44.08171764 17.96138295 45.30070469 10.35745846 43.25 0.875 C45.31172613 0.53691314 47.3744203 0.20472639 49.4375 -0.125 C50.58605469 -0.310625 51.73460937 -0.49625 52.91796875 -0.6875 C55.75415393 -1.05989477 58.39719564 -1.21096021 61.25 -1.125 C63.30044691 2.97589381 62.88225265 7.43329233 62.25 11.875 C58.75496094 21.560312 53.11624056 29.27621466 46.25 36.875 C45.81107422 37.36210449 45.37214844 37.84920898 44.91992188 38.35107422 C42.60390311 40.91500253 40.26931232 43.46062998 37.91796875 45.9921875 C35.60425129 48.49222189 33.32680061 51.01785741 31.0625 53.5625 C26.81662585 58.29208133 22.4775273 62.93131541 18.125 67.5625 C17.45573486 68.27559326 16.78646973 68.98868652 16.09692383 69.72338867 C12.93149143 73.08243983 9.74028036 76.40413225 6.46484375 79.65625 C4.18205958 81.92322631 2.0045784 84.21926353 -0.0625 86.6875 C-1.28860374 88.08602458 -2.51805876 89.48161485 -3.75 90.875 C-4.513125 91.75285156 -5.27625 92.63070312 -6.0625 93.53515625 C-11.63583337 99.58744796 -15.5278756 102.24934943 -23.75 102.875 C-22.62101591 97.65695911 -21.41454534 92.46694052 -20.12890625 87.28515625 C-10.33674818 52.84187695 -10.33674818 52.84187695 -12.75 17.875 C-14.05531378 16.02652208 -14.05531378 16.02652208 -15.75 14.875 C-21.65778419 14.73760967 -25.55065909 18.11597833 -29.75 21.875 C-34.57677189 26.80338814 -38.70296453 32.30106104 -42.75 37.875 C-43.41 37.545 -44.07 37.215 -44.75 36.875 C-38.73045328 21.2745027 -29.73361091 7.45172035 -14.0625 -0.1875 C-9.07683038 -1.59853857 -4.93635284 -2.01941707 0 0 Z M-35.75 20.875 C-37.75590779 24.04175045 -37.75590779 24.04175045 -38.75 26.875 C-38.42 27.535 -38.09 28.195 -37.75 28.875 C-37.15832031 28.19953125 -36.56664062 27.5240625 -35.95703125 26.828125 C-35.16683594 25.93609375 -34.37664062 25.0440625 -33.5625 24.125 C-32.78519531 23.24328125 -32.00789063 22.3615625 -31.20703125 21.453125 C-27.0481195 17.08924304 -23.90682156 14.04617631 -17.8125 13.5625 C-14.04612445 13.61708515 -14.04612445 13.61708515 -11.8125 15.5625 C-1.26554977 38.51762696 -15.03923616 74.12128165 -21.18676758 96.58203125 C-21.82951452 98.80518888 -21.82951452 98.80518888 -21.75 100.875 C-16.1016437 100.49428971 -13.5933381 99.45293825 -9.75 95.3125 C-8.46416016 93.94738281 -8.46416016 93.94738281 -7.15234375 92.5546875 C-4.62150174 89.73166698 -2.12317821 86.88616599 0.33984375 84.00390625 C3.16354798 80.85683303 6.18762947 77.91627167 9.19628906 74.94824219 C12.49025803 71.68151487 15.56474342 68.29614792 18.57421875 64.76953125 C20.38977378 62.71698069 22.29759536 60.79753994 24.25 58.875 C27.42301693 55.74445175 30.38034529 52.50328492 33.28125 49.12109375 C35.19518043 46.93754217 37.16622472 44.81580364 39.15258789 42.69824219 C54.89559432 26.50004384 54.89559432 26.50004384 61.625 5.75 C61.41790317 2.93766243 61.41790317 2.93766243 60.25 0.875 C55.09922738 0.78463557 50.35972353 1.08841226 45.25 1.875 C45.33121094 2.86757813 45.41242188 3.86015625 45.49609375 4.8828125 C46.73217947 26.65195535 30.62802626 44.00036995 16.93359375 59.49609375 C15.41879869 61.18005374 13.89940898 62.8598943 12.375 64.53515625 C9.90114659 67.25912352 7.47607625 70.02239088 5.06005859 72.79760742 C3.22249387 74.90656861 1.38134505 77.01234687 -0.4609375 79.1171875 C-1.3897876 80.17848877 -1.3897876 80.17848877 -2.33740234 81.26123047 C-3.03663818 82.06004639 -3.03663818 82.06004639 -3.75 82.875 C-3.55365967 82.10124023 -3.35731934 81.32748047 -3.1550293 80.53027344 C1.67927441 61.35216586 6.38979798 42.51438008 6.625 22.625 C6.63909912 21.76712891 6.65319824 20.90925781 6.66772461 20.02539062 C6.61595538 13.37271744 5.54219805 7.65342188 1.1875 2.375 C-13.18855654 -4.96596504 -27.61218329 10.34617528 -35.75 20.875 Z " fill="#F55C57" transform="translate(447.75,52.125)"/>
<path d="M0 0 C-0.6660697 3.9422403 -1.83639549 7.45301627 -3.28515625 11.17578125 C-3.73310547 12.33271484 -4.18105469 13.48964844 -4.64257812 14.68164062 C-5.11115234 15.87982422 -5.57972656 17.07800781 -6.0625 18.3125 C-6.53494141 19.53001953 -7.00738281 20.74753906 -7.49414062 22.00195312 C-8.65914036 25.00271003 -9.82909305 28.00154318 -11 31 C-2.42 31 6.16 31 15 31 C9.77002252 38.84496623 9.77002252 38.84496623 7 41 C4.34277344 41.36230469 4.34277344 41.36230469 1.359375 41.171875 C-0.24550781 41.08486328 -0.24550781 41.08486328 -1.8828125 40.99609375 C-2.99398437 40.91488281 -4.10515625 40.83367188 -5.25 40.75 C-6.37664062 40.68425781 -7.50328125 40.61851563 -8.6640625 40.55078125 C-11.44441539 40.38584506 -14.2221037 40.20159083 -17 40 C-17.59566772 41.85359131 -17.59566772 41.85359131 -18.20336914 43.74462891 C-20.16193011 49.61451874 -22.44863671 55.34198645 -24.74609375 61.0859375 C-25.19847916 62.22350494 -25.65086456 63.36107239 -26.11695862 64.53311157 C-27.5547874 68.14801592 -28.99586114 71.76161362 -30.4375 75.375 C-31.87526369 78.98136442 -33.31226207 82.58802694 -34.74732971 86.19546509 C-35.63723937 88.43226369 -36.52869208 90.66844926 -37.42198181 92.90390015 C-39.42353078 97.93260992 -41.39390926 102.97173051 -43.28930664 108.04150391 C-43.7757943 109.34155869 -43.7757943 109.34155869 -44.27210999 110.6678772 C-45.16120444 113.51649087 -45.32033373 116.036913 -45 119 C-35.33712124 117.79568227 -27.43027139 112.00382961 -20 106 C-19.01 106.495 -19.01 106.495 -18 107 C-23.20241884 118.42054802 -33.08839402 126.11712117 -44.375 131.1875 C-49.20538257 132.94984996 -52.90003526 133.80525759 -58 133 C-60.9375 131.5 -60.9375 131.5 -63 129 C-66.00434353 118.48479765 -60.64018209 107.42633495 -56.4375 97.875 C-55.75240356 96.28679443 -55.75240356 96.28679443 -55.0534668 94.66650391 C-54.00029537 92.22534659 -52.94386853 89.78580289 -51.88378906 87.34765625 C-49.66184121 82.22927819 -47.46798551 77.09892191 -45.2734375 71.96875 C-44.44735498 70.03791977 -43.62126446 68.10709295 -42.79516602 66.17626953 C-42.38533478 65.2183551 -41.97550354 64.26044067 -41.55325317 63.27349854 C-39.55510451 58.60566363 -37.55314585 53.93946513 -35.55078125 49.2734375 C-35.19192841 48.43719849 -34.83307556 47.60095947 -34.46334839 46.73937988 C-33.64230191 44.82622336 -32.82116259 42.91310669 -32 41 C-37.28 40.67 -42.56 40.34 -48 40 C-45.87961829 35.75923658 -44.86257454 33.7265232 -41 31 C-36.6360417 30.57101866 -32.37042693 30.71205093 -28 31 C-27.649375 29.845 -27.29875 28.69 -26.9375 27.5 C-26.29317003 25.66613777 -25.64704626 23.8329056 -25 22 C-24.80615723 21.37303223 -24.61231445 20.74606445 -24.41259766 20.10009766 C-20.2596584 6.86556002 -20.2596584 6.86556002 -14.3125 3.63671875 C-9.70849904 1.60950913 -5.07010024 0 0 0 Z M-16 7 C-18.80163759 10.71118727 -20.35846911 14.67232766 -22 19 C-22.95752242 21.20868506 -23.91582299 23.41703298 -24.875 25.625 C-26.47635424 29.20475169 -26.47635424 29.20475169 -27 33 C-28.46373047 32.94779297 -28.46373047 32.94779297 -29.95703125 32.89453125 C-31.86548828 32.85392578 -31.86548828 32.85392578 -33.8125 32.8125 C-35.07707031 32.77769531 -36.34164062 32.74289063 -37.64453125 32.70703125 C-40.93975673 32.70925502 -40.93975673 32.70925502 -42.94921875 34.38671875 C-44.18192419 35.95842616 -44.18192419 35.95842616 -44 38 C-39.05 38 -34.1 38 -29 38 C-31.75390625 44.42578125 -31.75390625 44.42578125 -32.71136475 46.65957642 C-34.3372575 50.45292319 -35.96254196 54.24652914 -37.58691406 58.04052734 C-40.77842547 65.49330847 -43.9730784 72.9446361 -47.18809509 80.38731384 C-48.550476 83.54171237 -49.91019863 86.69725364 -51.26974487 89.85287476 C-51.91777244 91.35493248 -52.56710339 92.85642863 -53.21780396 94.35733032 C-59.79782213 108.10785649 -59.79782213 108.10785649 -62.375 122.875 C-62.38273437 123.77992188 -62.39046875 124.68484375 -62.3984375 125.6171875 C-62.16804417 128.02247946 -62.16804417 128.02247946 -60.78125 129.78125 C-56.91592412 132.42594666 -52.43121336 131.73944846 -48 131 C-37.89375209 127.25190561 -30.50227082 120.47523561 -23 113 C-23.33 112.34 -23.66 111.68 -24 111 C-24.74765625 111.48210937 -25.4953125 111.96421875 -26.265625 112.4609375 C-27.74289063 113.40839844 -27.74289063 113.40839844 -29.25 114.375 C-30.22453125 115.00148438 -31.1990625 115.62796875 -32.203125 116.2734375 C-37.38210398 119.4705167 -40.97362818 120.39736282 -47 121 C-46.79529851 112.42214972 -44.12715116 105.24975119 -40.9375 97.375 C-40.41327072 96.05293272 -39.89018942 94.73040976 -39.36816406 93.4074707 C-37.91897146 89.74604221 -36.4528287 86.09163619 -34.98187256 82.43890381 C-33.94125173 79.85407335 -32.90318316 77.26822937 -31.86572266 74.68212891 C-31.31828148 73.31755554 -31.31828148 73.31755554 -30.75978088 71.92541504 C-30.01893059 70.07809897 -29.2783181 68.23068752 -28.53794861 66.38317871 C-26.72583362 61.86196048 -24.9092528 57.34267428 -23.08178711 52.82763672 C-22.4138596 51.17026357 -21.74597034 49.51287501 -21.078125 47.85546875 C-20.76619705 47.08918655 -20.4542691 46.32290436 -20.13288879 45.53340149 C-18.55526505 41.88298112 -18.55526505 41.88298112 -18 38 C-17.29915283 38.06171387 -16.59830566 38.12342773 -15.8762207 38.18701172 C-12.69003025 38.44907819 -9.50236121 38.66246473 -6.3125 38.875 C-5.20970703 38.97296875 -4.10691406 39.0709375 -2.97070312 39.171875 C-1.3706543 39.26855469 -1.3706543 39.26855469 0.26171875 39.3671875 C1.24100342 39.44050293 2.22028809 39.51381836 3.22924805 39.58935547 C6.97097832 39.09187261 6.97097832 39.09187261 11 33 C2.75 33 -5.5 33 -14 33 C-13.13375 30.92976563 -12.2675 28.85953125 -11.375 26.7265625 C-10.54016606 24.72463631 -9.70654789 22.72220802 -8.87304688 20.71972656 C-8.2922869 19.32629239 -7.71026074 17.93338525 -7.12695312 16.54101562 C-6.28964617 14.54173168 -5.45688311 12.54060824 -4.625 10.5390625 C-4.12226563 9.33459473 -3.61953125 8.13012695 -3.1015625 6.88916016 C-1.88124734 4.20387678 -1.88124734 4.20387678 -2 2 C-7.03789361 2 -11.81385872 4.3829759 -16 7 Z " fill="#F55D58" transform="translate(181,22)"/>
<path d="M0 0 C1.17635103 3.52905308 0.80571137 4.11730261 -0.6171875 7.4140625 C-0.97683594 8.25710937 -1.33648437 9.10015625 -1.70703125 9.96875 C-2.09246094 10.8453125 -2.47789062 11.721875 -2.875 12.625 C-3.25269531 13.50929688 -3.63039063 14.39359375 -4.01953125 15.3046875 C-6.83319997 21.83319997 -6.83319997 21.83319997 -8 23 C-10.33297433 23.04092937 -12.66705225 23.04241723 -15 23 C-14.83242188 22.25234375 -14.66484375 21.5046875 -14.4921875 20.734375 C-14.28851563 19.74953125 -14.08484375 18.7646875 -13.875 17.75 C-13.56175781 16.28820312 -13.56175781 16.28820312 -13.2421875 14.796875 C-12.97657587 11.72948914 -13.19890839 10.4694212 -15 8 C-20.02123916 6.32625361 -24.32232007 6.43955999 -29.1875 8.5 C-32.91884658 10.57216528 -34.76496326 12.81720693 -36.3671875 16.7578125 C-39.23693829 26.92594186 -34.7728174 35.6910346 -31 45 C-27.38000279 54.09387177 -24.88487436 62.9936463 -27.8125 72.69140625 C-33.33902141 84.95337562 -43.98807699 93.99954443 -56.375 98.875 C-67.06847949 102.19366605 -75.74893597 101.67353002 -86 97 C-86.99 96.34 -87.98 95.68 -89 95 C-87.38989473 90.92623969 -84.46177729 88.23492931 -81.375 85.25 C-80.859375 84.74339844 -80.34375 84.23679687 -79.8125 83.71484375 C-78.54616661 82.47196098 -77.2736856 81.23534724 -76 80 C-73.53563711 81.16705558 -71.69407152 82.25101824 -69.5625 84 C-65.51449977 87.15941481 -62.67226309 88.22592175 -57.5625 87.875 C-52.26352729 87.12556126 -48.7296611 84.96823504 -45.1875 80.9375 C-42.83123996 77.09307573 -42.32717624 73.38469417 -43 69 C-44.44137868 64.57418993 -46.22654381 60.30147233 -48 56 C-48.92368194 53.648577 -49.8406111 51.29448755 -50.75 48.9375 C-51.15734375 47.89464844 -51.5646875 46.85179687 -51.984375 45.77734375 C-54.75945671 38.18856261 -54.96411148 30.94803235 -52.09375 23.3203125 C-46.42106138 11.28610878 -36.11137462 2.57308808 -23.8125 -2.25 C-15.47103503 -3.89094393 -7.65862305 -3.90156269 0 0 Z M-44.39453125 13.9375 C-49.92212296 21.03863972 -52.91397219 28.09529937 -52.38671875 37.140625 C-51.24069449 45.61425892 -47.75910563 53.14747942 -44.3046875 60.8984375 C-41.90350441 66.60663922 -41.39979663 71.82790867 -42 78 C-43.5 81 -43.5 81 -45 83 C-45 83.66 -45 84.32 -45 85 C-46.33333333 85.66666667 -47.66666667 86.33333333 -49 87 C-49.58523438 87.34546875 -50.17046875 87.6909375 -50.7734375 88.046875 C-55.25308277 89.96447754 -60.23453714 89.52949587 -65 89 C-68.62168388 87.1573889 -71.29158262 85.00935265 -74 82 C-77.68069887 83.53643852 -79.98775204 85.78150945 -82.75 88.625 C-83.54921875 89.44226563 -84.3484375 90.25953125 -85.171875 91.1015625 C-85.77515625 91.72804688 -86.3784375 92.35453125 -87 93 C-81.89474286 98.36051999 -77.05432102 99.24056936 -69.8125 99.5 C-56.80998181 99.19255129 -45.95251464 93.04297487 -36.8984375 83.87109375 C-31.45556345 77.39754781 -27.44608137 69.70363066 -28 61.0625 C-29.16062035 53.74254792 -31.85074623 46.84627186 -34.59765625 39.99609375 C-40.81909659 24.36104127 -40.81909659 24.36104127 -38.26171875 16.82421875 C-36.00186919 11.7372323 -33.04172341 8.5208617 -28 6 C-25.8576785 5.85166349 -23.70975871 5.77872587 -21.5625 5.75 C-20.40878906 5.72421875 -19.25507813 5.6984375 -18.06640625 5.671875 C-15 6 -15 6 -13.1015625 7.12890625 C-11.49541163 9.85708449 -11.71137011 12.05247353 -11.8125 15.1875 C-11.85310547 16.81751953 -11.85310547 16.81751953 -11.89453125 18.48046875 C-11.92933594 19.31191406 -11.96414063 20.14335938 -12 21 C-10.05121852 20.76462152 -10.05121852 20.76462152 -8 20 C-6.54803855 17.3616798 -5.37327388 14.89702782 -4.25 12.125 C-3.93417969 11.39152344 -3.61835938 10.65804687 -3.29296875 9.90234375 C-1.47377386 5.60938048 -1.47377386 5.60938048 -1 1 C-17.56913179 -5.23516054 -32.82965729 1.63093579 -44.39453125 13.9375 Z " fill="#F55C57" transform="translate(356,54)"/>
<path d="M0 0 C-2.22018182 7.19696522 -5.14367224 13.82998532 -8.375 20.625 C-15.37261099 35.56345332 -21.72913956 50.74524935 -28 66 C-28.43957031 67.0626709 -28.87914062 68.1253418 -29.33203125 69.22021484 C-30.47930823 71.99780882 -31.61720083 74.77897534 -32.75 77.5625 C-33.07323242 78.3467334 -33.39646484 79.1309668 -33.72949219 79.93896484 C-35.34390118 83.95706936 -36.47947059 87.66453792 -37 92 C-25.64004703 87.95662691 -17.31794488 79.45512238 -9 71 C-8.01 71.495 -8.01 71.495 -7 72 C-11.63811685 85.94131634 -23.50229521 95.0159885 -36 102 C-41.55442561 104.14602808 -46.71370375 105.3482241 -52.4375 103 C-54.91680369 99.82649128 -55.25207588 96.89652774 -55 93 C-52.53966364 82.3547438 -47.95476138 72.32435478 -43.6875 62.3125 C-41.10223131 56.21776971 -38.5325929 50.11682732 -36 44 C-35.66373596 43.18835388 -35.32747192 42.37670776 -34.98101807 41.54046631 C-33.98110008 39.10874846 -32.99781816 36.6709586 -32.01953125 34.23046875 C-31.71536789 33.49306961 -31.41120453 32.75567047 -31.0978241 31.9959259 C-30.82166763 31.29755112 -30.54551117 30.59917633 -30.26098633 29.87963867 C-30.01665359 29.27351242 -29.77232086 28.66738617 -29.52058411 28.04289246 C-28.75306453 25.38233119 -28.75306453 25.38233119 -29 20 C-33.62 20.33 -38.24 20.66 -43 21 C-42 16 -42 16 -41 13 C-38.23096068 11.80492691 -35.55130758 10.80361575 -32.6953125 9.86328125 C-31.44293289 9.43682564 -31.44293289 9.43682564 -30.16525269 9.00175476 C-28.39672092 8.40207735 -26.62623407 7.80814008 -24.85400391 7.21948242 C-22.13910761 6.31718865 -19.43059904 5.39753657 -16.72265625 4.47460938 C-15.00555609 3.89480243 -13.28811873 3.31599295 -11.5703125 2.73828125 C-10.35143845 2.3258593 -10.35143845 2.3258593 -9.10794067 1.90510559 C-5.96854716 0.86634335 -3.32973262 0 0 0 Z M-9.51159668 3.58804321 C-10.63507507 3.96598526 -10.63507507 3.96598526 -11.78125 4.3515625 C-12.9351825 4.73542618 -12.9351825 4.73542618 -14.11242676 5.12704468 C-15.74123164 5.67280871 -17.36860168 6.22287065 -18.99462891 6.77685547 C-21.48385331 7.61953385 -23.98141022 8.43312324 -26.48046875 9.24609375 C-28.06049457 9.77947967 -29.63994276 10.31458037 -31.21875 10.8515625 C-31.9677356 11.09137848 -32.71672119 11.33119446 -33.48840332 11.57827759 C-35.85687734 12.35976982 -35.85687734 12.35976982 -39 14 C-39.66 15.65 -40.32 17.3 -41 19 C-36.38 19 -31.76 19 -27 19 C-27.48777953 25.37240175 -28.62859862 30.4568857 -31.125 36.3125 C-31.45902832 37.12283691 -31.79305664 37.93317383 -32.13720703 38.76806641 C-33.41230657 41.85070643 -34.70661351 44.92498649 -36 48 C-37.60545542 51.84021803 -39.20688099 55.6821175 -40.80819702 59.52406311 C-42.49890902 63.57972209 -44.19283948 67.63395376 -45.89501953 71.68481445 C-46.37699799 72.83505348 -46.37699799 72.83505348 -46.86871338 74.00852966 C-47.4743643 75.45388686 -48.08163843 76.8985654 -48.69085693 78.34242249 C-52.11219408 86.2535134 -52.11219408 86.2535134 -53.25 94.6875 C-53.25515625 95.43386719 -53.2603125 96.18023437 -53.265625 96.94921875 C-53.1139892 99.30917927 -53.1139892 99.30917927 -51 102 C-44.62967502 103.470075 -39.0635096 101.69981567 -33.5078125 98.6171875 C-29.05105816 95.74320573 -25.02868613 92.4381621 -21 89 C-20.22914063 88.38640625 -19.45828125 87.7728125 -18.6640625 87.140625 C-14.55215446 83.78578307 -12.06065334 81.43584836 -11 76 C-11.94875 76.825 -12.8975 77.65 -13.875 78.5 C-16.94506515 81.12612498 -20.05096124 83.7035952 -23.1875 86.25 C-24.00605469 86.91515625 -24.82460938 87.5803125 -25.66796875 88.265625 C-29.96330135 91.46014372 -32.60943505 92.24502568 -38 92 C-37.58899394 84.23867632 -34.72478289 77.83699342 -31.6875 70.75 C-31.14515016 69.46622442 -30.60357892 68.18211966 -30.06274414 66.89770508 C-28.66173881 63.57779565 -27.248232 60.26335798 -25.83178711 56.95001221 C-24.52017777 53.87512179 -23.22205193 50.79458543 -21.921875 47.71484375 C-15.55186029 32.68314372 -8.89388921 17.79844395 -2 3 C-4.84382813 1.57808594 -6.6173503 2.65326261 -9.51159668 3.58804321 Z " fill="#F55C57" transform="translate(407,51)"/>
<path d="M0 0 C-6.64791786 17.8177697 -18.38214812 24.86976064 -35 33 C-36 30 -36 30 -34.75390625 27.20703125 C-28.79055833 17.47598442 -11.98309752 0 0 0 Z " fill="#F55B57" transform="translate(430,5)"/>
<path d="M0 0 C0.66 0.33 1.32 0.66 2 1 C-2.28949411 8.75143308 -6.19605591 13.77337408 -14 18 C-14.99644531 18.55816406 -15.99289062 19.11632812 -17.01953125 19.69140625 C-19.66592321 21.1555846 -22.32457179 22.58977429 -25 24 C-21.22626111 13.70637421 -13.00749471 8.66242602 -4.1328125 3.00390625 C-1.23971883 1.31126858 -1.23971883 1.31126858 0 0 Z " fill="#FEBB62" transform="translate(423,10)"/>
<path d="M0 0 C12.87 0.495 12.87 0.495 26 1 C24.75726016 7.21369918 24.75726016 7.21369918 21 10 C18.34277344 10.36230469 18.34277344 10.36230469 15.359375 10.171875 C13.75449219 10.08486328 13.75449219 10.08486328 12.1171875 9.99609375 C11.00601563 9.91488281 9.89484375 9.83367188 8.75 9.75 C7.62335938 9.68425781 6.49671875 9.61851563 5.3359375 9.55078125 C2.55558461 9.38584506 -0.2221037 9.20159083 -3 9 C-3.20278564 9.61415771 -3.40557129 10.22831543 -3.61450195 10.86108398 C-3.88222412 11.66876221 -4.14994629 12.47644043 -4.42578125 13.30859375 C-4.69044189 14.10837646 -4.95510254 14.90815918 -5.2277832 15.73217773 C-6.06572772 18.19302713 -6.9946969 20.60273876 -8 23 C-8.66 23 -9.32 23 -10 23 C-9.56661254 21.64451156 -9.12802005 20.29068724 -8.6875 18.9375 C-8.44386719 18.18339844 -8.20023438 17.42929688 -7.94921875 16.65234375 C-6.7728638 13.36532724 -5.39788158 10.19907353 -4 7 C-3.29391602 7.02094727 -2.58783203 7.04189453 -1.86035156 7.06347656 C1.34295376 7.14669298 4.54603163 7.19867785 7.75 7.25 C8.86117187 7.28351562 9.97234375 7.31703125 11.1171875 7.3515625 C12.18710938 7.36445312 13.25703125 7.37734375 14.359375 7.390625 C15.83615723 7.4220459 15.83615723 7.4220459 17.34277344 7.45410156 C20.61163929 7.15887991 20.61163929 7.15887991 24 3 C16.08 2.67 8.16 2.34 0 2 C0 1.34 0 0.68 0 0 Z " fill="#F76E59" transform="translate(167,53)"/>
<path d="M0 0 C0 3 0 3 -1.828125 5.19140625 C-2.62734375 5.97386719 -3.4265625 6.75632813 -4.25 7.5625 C-5.03890625 8.34753906 -5.8278125 9.13257813 -6.640625 9.94140625 C-8.7267613 11.76159471 -10.47089399 12.92687015 -13 14 C-11.66269593 9.77731703 -10.07010792 7.89155524 -6.5 5.3125 C-4.17188308 3.60798583 -2.04177166 2.04177166 0 0 Z " fill="#FDB061" transform="translate(597,130)"/>
<path d="M0 0 C0 3 0 3 -4 8 C0.62 8 5.24 8 10 8 C10 8.33 10 8.66 10 9 C4.39 9 -1.22 9 -7 9 C-5.04783565 5.09567131 -3.12613393 2.96160056 0 0 Z " fill="#F55457" transform="translate(140,53)"/>
<path d="M0 0 C0.33 0.99 0.66 1.98 1 3 C-0.62319675 4.31472947 -2.248615 5.62671662 -3.875 6.9375 C-4.77992188 7.66839844 -5.68484375 8.39929688 -6.6171875 9.15234375 C-9 11 -9 11 -11 12 C-9.49650623 8.33213607 -7.36271208 6.31089607 -4.375 3.75 C-3.14910156 2.69039063 -3.14910156 2.69039063 -1.8984375 1.609375 C-1.27195313 1.07828125 -0.64546875 0.5471875 0 0 Z " fill="#FDAF60" transform="translate(202,64)"/>
<path d="M0 0 C0.66 0.33 1.32 0.66 2 1 C-0.31 3.31 -2.62 5.62 -5 8 C-5.66 7.34 -6.32 6.68 -7 6 C-4.69 4.02 -2.38 2.04 0 0 Z " fill="#FDAE60" transform="translate(272,131)"/>
</svg>
